{"title":"The Night Of S01E03 1080p HDTV HEVC DD2.0 x265","uid":15432378,"size":996179938,"categoryP":"video","categoryS":"hd___tv_shows","magnet":"?xt=urn:btih:0b51a89fb3db978fab0fd0f097c7c4ae4b89c58a&amp;dn=The+Night+Of+S01E03+1080p+HDTV+HEVC+DD2.0+x265&amp;tr=udp%3A%2F%2Ftracker.leechers-paradise.org%3A6969&amp;tr=udp%3A%2F%2Fzer0day.ch%3A1337&amp;tr=udp%3A%2F%2Fopen.demonii.com%3A1337&amp;tr=udp%3A%2F%2Ftracker.coppersurfer.tk%3A6969&amp;tr=udp%3A%2F%2Fexodus.desync.com%3A6969","seeders":36,"leechers":0,"uploader":"nayhtut","files":1,"time":1469735363,"description":"[Screenshots]\r\n\r\n \nhttps://s31.postimg.org/4b19wiuuz/The_Night_Of_S01_E03_1080p_HDTV_HEVC_DD2_0_x265_0.jpg \nhttps://s31.postimg.org/owg1ofcfv/The_Night_Of_S01_E03_1080p_HDTV_HEVC_DD2_0_x265_0.jpg \nhttps://s31.postimg.org/77oawt0or/The_Night_Of_S01_E03_1080p_HDTV_HEVC_DD2_0_x265_0.jpg\r\n\r\n\r\nSource: THE NIGHT OF S01E03 1080P HDTV DD5 1 X264-LIBERTY (1.73 GB)\r\n\r\n\r\n__--__--__--__--__--__--__--__--__--__--__--__--__--\r\n\r\n\r\nComplete name                            : The.Night.Of.S01E03.1080p.HDTV.HEVC.DD2.0.x265.mkv\r\nFormat                                   : Matroska\r\nFormat version                           : Version 4 / Version 2\r\nFile size                                : 950 MiB\r\nDuration                                 : 56mn 53s\r\nOverall bit rate                         : 2 334 Kbps\r\nMovie name                               : The Night Of 1x03 : &quot;A Dark Crate&quot;\r\nWriting application                      : Lavf57.25.100\r\nWriting library                          : Lavf57.25.100\r\n\r\nVideo\r\n\r\nID                                       : 1\r\nFormat                                   : V_MPEGH/ISO/HEVC\r\nCodec ID                                 : V_MPEGH/ISO/HEVC\r\nDuration                                 : 56mn 53s\r\nBit rate                                 : 1 968 Kbps\r\nWidth                                    : 1 920 pixels\r\nHeight                                   : 1 080 pixels\r\nDisplay aspect ratio                     : 16:9\r\nFrame rate                               : 25.000 fps\r\nBits/(Pixel*Frame)                       : 0.038\r\nStream size                              : 801 MiB (84%)\r\nWriting library                          : Lavc57.48.101 libx265\r\nDefault                                  : Yes\r\nForced                                   : Yes\r\nDURATION                                 : 00:56:53.851000000\r\nNUMBER_OF_FRAMES                         : 85345\r\nNUMBER_OF_BYTES                          : 1687864297\r\n_STATISTICS_WRITING_APP                  : mkvmerge v8.3.0 ('Over the Horizon') 64bit\r\n_STATISTICS_WRITING_DATE_UTC             : 2016-07-28 07:30:20\r\n_STATISTICS_TAGS                         : BPS DURATION NUMBER_OF_FRAMES NUMBER_OF_BYTES\r\n\r\nAudio\r\n\r\nID                                       : 2\r\nFormat                                   : AC-3\r\nFormat/Info                              : Audio Coding 3\r\nMode extension                           : CM (complete main)\r\nFormat settings, Endianness              : Big\r\nCodec ID                                 : A_AC3\r\nDuration                                 : 56mn 53s\r\nBit rate mode                            : Constant\r\nBit rate                                 : 320 Kbps\r\nChannel(s)                               : 2 channels\r\nChannel positions                        : Front: L R\r\nSampling rate                            : 48.0 KHz\r\nBit depth                                : 16 bits\r\nCompression mode                         : Lossy\r\nStream size                              : 130 MiB (14%)\r\nWriting library                          : Lavc57.24.102 ac3\r\nLanguage                                 : English\r\nDefault                                  : Yes\r\nForced                                   : Yes\r\nDURATION                                 : 00:56:53.855000000\r\nNUMBER_OF_FRAMES                         : 106681\r\nNUMBER_OF_BYTES                          : 163860480\r\n_STATISTICS_WRITING_APP                  : mkvmerge v8.3.0 ('Over the Horizon') 64bit\r\n_STATISTICS_WRITING_DATE_UTC             : 2016-07-28 07:30:20\r\n_STATISTICS_TAGS                         : BPS DURATION NUMBER_OF_FRAMES NUMBER_OF_BYTES\r\n\r\nText\r\n\r\nID                                       : 3\r\nFormat                                   : ASS\r\nCodec ID                                 : S_TEXT/ASS\r\nCodec ID/Info                            : Advanced Sub Station Alpha\r\nCompression mode                         : Lossless\r\nTitle                                    : Full Z2 (srt)\r\nWriting library                          : Lavc57.24.102 ass\r\nLanguage                                 : French\r\nDefault                                  : No\r\nForced                                   : No\r\nDURATION                                 : 00:55:53.791000000\r\nNUMBER_OF_FRAMES                         : 725\r\nNUMBER_OF_BYTES                          : 20771\r\n_STATISTICS_WRITING_APP                  : mkvmerge v8.3.0 ('Over the Horizon') 64bit\r\n_STATISTICS_WRITING_DATE_UTC             : 2016-07-28 07:30:20\r\n_STATISTICS_TAGS                         : BPS DURATION NUMBER_OF_FRAMES NUMBER_OF_BYTES\r\n\r\n\r\n__--__--__--__--__--__--__--__--__--__--__--__--__--\r\n\r\n\r\nIMDb: http://www.imdb.com/title/tt2401256\r\n\r\nAfter adding torrent with maget link,\r\n\r\nplease add this  following trackers list to the torrent for better seeds.\r\n\r\n\r\nudp://tracker.coppersurfer.tk:6969/announce\r\n\r\nudp://tracker.opentrackr.org:1337/announce\r\n \nhttp://tracker.baravik.org:6970/announce\r\n \nhttp://tracker2.wasabii.com.tw:6969/announce\r\n\r\nudp://9.rarbg.me:2710/announce\r\n\r\n\r\n__--__--__--__--__--__--__--__--__--__--__--__--__--\r\n\r\n\r\nEnjoy!","torrent":{"xt":"urn:btih:0b51a89fb3db978fab0fd0f097c7c4ae4b89c58a","amp;dn":"The+Night+Of+S01E03+1080p+HDTV+HEVC+DD2.0+x265","amp;tr":["udp%3A%2F%2Ftracker.leechers-paradise.org%3A6969","udp%3A%2F%2Fzer0day.ch%3A1337","udp%3A%2F%2Fopen.demonii.com%3A1337","udp%3A%2F%2Ftracker.coppersurfer.tk%3A6969","udp%3A%2F%2Fexodus.desync.com%3A6969"],"infoHash":"0b51a89fb3db978fab0fd0f097c7c4ae4b89c58a","infoHashBuffer":{"type":"Buffer","data":[11,81,168,159,179,219,151,143,171,15,208,240,151,199,196,174,75,137,197,138]},"announce":[],"urlList":[]}}